<svg width="36" height="34" viewBox="0 0 36 34" fill="none" xmlns="http://www.w3.org/2000/svg">
<circle cx="17.999" cy="17" r="15.5" fill="url(#paint0_linear_180_34)" stroke="#C8CF00"/>
<path d="M24.5601 5.5123C22.4186 4.63763 20.0811 4.24833 17.7547 4.37891C15.4283 4.50948 13.1848 5.15589 11.2229 6.26087C9.261 7.36585 7.64129 8.8953 6.50722 10.7137C5.37315 12.5322 4.75973 14.5835 4.72131 16.686C4.68288 18.7884 5.22063 20.8772 6.28693 22.7671C7.35322 24.6571 8.91515 26.29 10.8343 27.5211C12.7535 28.7523 14.9708 29.5437 17.2897 29.8253C19.6085 30.1069 21.9575 29.8699 24.1284 29.1354L26.8538 27.2961C24.952 27.9395 18.8667 31.008 16.8353 30.7614C14.804 30.5147 13.5173 27.3134 11.836 26.2349C10.1548 25.1564 6.20341 24.9173 5.26932 23.2617C4.33523 21.606 6.44723 18.585 6.48089 16.7432C6.51455 14.9014 5.51375 12.3067 6.50722 10.7137C7.50068 9.12076 10.4577 8.5786 12.1764 7.61062C13.895 6.64264 16.0722 3.12284 18.1101 3.00846C20.1481 2.89407 24.4677 5.86543 26.3437 6.63166L24.5601 5.5123Z" fill="#242121"/>
<path d="M9.62402 24L12.1436 12.6328H12.4365L13.6084 18.1016L12.3193 24H9.62402ZM13.7842 22.3398L14.3701 19.6445H15.0732L13.0029 10.3281H15.7178L18.9404 24H16.2061L15.8154 22.3398H13.7842ZM20.0537 20.25V13.7656C20.1709 12.8411 20.568 12.0273 21.2451 11.3242C21.9613 10.5951 22.8402 10.2305 23.8818 10.2305V12.9844C23.3219 12.9974 22.9769 13.2643 22.8467 13.7852C22.8206 13.9023 22.8076 14 22.8076 14.0781V20.25C22.8206 20.7839 23.1201 21.1354 23.7061 21.3047C23.7842 21.3307 23.8428 21.3438 23.8818 21.3438V24.0977C23.1266 24.0977 22.3714 23.8307 21.6162 23.2969C20.5876 22.5417 20.0667 21.526 20.0537 20.25ZM24.9365 24.0977V21.3438C25.0798 21.3438 25.262 21.2266 25.4834 20.9922C25.6787 20.7708 25.7764 20.5365 25.7764 20.2891V19.6445H24.9365V17.1055H28.5498V20.5625C28.5498 21.3698 28.1331 22.1641 27.2998 22.9453C26.5055 23.7005 25.7178 24.0846 24.9365 24.0977ZM24.9365 12.9844V10.2305C25.9001 10.2305 26.7594 10.6471 27.5146 11.4805C28.2048 12.2227 28.5498 13.0365 28.5498 13.9219L25.8545 14.918V14.1562C25.8545 13.5443 25.6201 13.1667 25.1514 13.0234C25.0732 12.9974 25.0016 12.9844 24.9365 12.9844Z" fill="url(#paint1_linear_180_34)"/>
<defs>
<linearGradient id="paint0_linear_180_34" x1="17.999" y1="1" x2="17.999" y2="33" gradientUnits="userSpaceOnUse">
<stop stop-color="white"/>
<stop offset="0.3125" stop-color="#FFFDFD"/>
<stop offset="0.413462" stop-color="#0400F7"/>
<stop offset="0.615385" stop-color="#0400FF"/>
<stop offset="0.706731" stop-color="#FF0000"/>
<stop offset="1" stop-color="#FF0019"/>
</linearGradient>
<linearGradient id="paint1_linear_180_34" x1="19.499" y1="3" x2="19.499" y2="33" gradientUnits="userSpaceOnUse">
<stop stop-color="#FF0A0A"/>
<stop offset="0.399038" stop-color="#FF0000"/>
<stop offset="0.456731" stop-color="#2B02F8"/>
<stop offset="0.557692" stop-color="#0F0057"/>
<stop offset="0.620192" stop-color="#FFFEFD"/>
<stop offset="1" stop-color="#FFF1F0"/>
</linearGradient>
</defs>
</svg>
