<svg width="17" height="15" viewBox="0 0 17 15" fill="none" xmlns="http://www.w3.org/2000/svg">
<path d="M8.64648 0.941406C12.6567 0.941526 15.8318 3.90986 15.832 7.48145C15.832 11.0532 12.6569 14.0223 8.64648 14.0225C4.636 14.0225 1.46094 11.0533 1.46094 7.48145C1.46117 3.90978 4.63615 0.941406 8.64648 0.941406Z" fill="url(#paint0_linear_180_35)" stroke="#C8CF00"/>
<path d="M11.7978 2.42556C10.7691 2.04068 9.64635 1.86938 8.5289 1.92684C7.41146 1.98429 6.33383 2.26873 5.39147 2.75495C4.44911 3.24117 3.6711 3.91417 3.12637 4.71434C2.58164 5.5145 2.287 6.41713 2.26855 7.34228C2.25009 8.26742 2.50839 9.18651 3.02056 10.0182C3.53274 10.8498 4.28298 11.5683 5.20483 12.11C6.12668 12.6518 7.19169 13 8.30552 13.1239C9.41935 13.2478 10.5476 13.1436 11.5904 12.8204L12.8995 12.011C11.986 12.2941 9.06303 13.6444 8.0873 13.5358C7.11157 13.4273 6.49352 12.0187 5.68596 11.5441C4.8784 11.0695 2.98045 10.9643 2.53177 10.2358C2.0831 9.50723 3.09756 8.17788 3.11373 7.36745C3.1299 6.55701 2.64918 5.41529 3.12637 4.71434C3.60357 4.01338 5.02393 3.77482 5.84945 3.34888C6.67498 2.92294 7.72072 1.37414 8.69962 1.3238C9.67852 1.27347 11.7534 2.58095 12.6545 2.91811L11.7978 2.42556Z" fill="#242121"/>
<path d="M4.3125 10L5.57227 4.31641H5.71875L6.30469 7.05078L5.66016 10H4.3125ZM6.39258 9.16992L6.68555 7.82227H7.03711L6.00195 3.16406H7.35938L8.9707 10H7.60352L7.4082 9.16992H6.39258ZM9.52734 8.125V4.88281C9.58594 4.42057 9.78451 4.01367 10.123 3.66211C10.4811 3.29753 10.9206 3.11523 11.4414 3.11523V4.49219C11.1615 4.4987 10.9889 4.63216 10.9238 4.89258C10.9108 4.95117 10.9043 5 10.9043 5.03906V8.125C10.9108 8.39193 11.0605 8.56771 11.3535 8.65234C11.3926 8.66536 11.4219 8.67188 11.4414 8.67188V10.0488C11.0638 10.0488 10.6862 9.91536 10.3086 9.64844C9.79427 9.27083 9.53385 8.76302 9.52734 8.125ZM11.9688 10.0488V8.67188C12.0404 8.67188 12.1315 8.61328 12.2422 8.49609C12.3398 8.38542 12.3887 8.26823 12.3887 8.14453V7.82227H11.9688V6.55273H13.7754V8.28125C13.7754 8.6849 13.5671 9.08203 13.1504 9.47266C12.7533 9.85026 12.3594 10.0423 11.9688 10.0488ZM11.9688 4.49219V3.11523C12.4505 3.11523 12.8802 3.32357 13.2578 3.74023C13.6029 4.11133 13.7754 4.51823 13.7754 4.96094L12.4277 5.45898V5.07812C12.4277 4.77214 12.3105 4.58333 12.0762 4.51172C12.0371 4.4987 12.0013 4.49219 11.9688 4.49219Z" fill="url(#paint1_linear_180_35)"/>
<defs>
<linearGradient id="paint0_linear_180_35" x1="8.64624" y1="0.441406" x2="8.64624" y2="14.5223" gradientUnits="userSpaceOnUse">
<stop stop-color="white"/>
<stop offset="0.3125" stop-color="#FFFDFD"/>
<stop offset="0.413462" stop-color="#0400F7"/>
<stop offset="0.615385" stop-color="#0400FF"/>
<stop offset="0.706731" stop-color="#FF0000"/>
<stop offset="1" stop-color="#FF0019"/>
</linearGradient>
<linearGradient id="paint1_linear_180_35" x1="9.5" y1="0" x2="9.5" y2="13" gradientUnits="userSpaceOnUse">
<stop stop-color="#FF0A0A"/>
<stop offset="0.399038" stop-color="#FF0000"/>
<stop offset="0.456731" stop-color="#2B02F8"/>
<stop offset="0.557692" stop-color="#0F0057"/>
<stop offset="0.620192" stop-color="#FFFEFD"/>
<stop offset="1" stop-color="#FFF1F0"/>
</linearGradient>
</defs>
</svg>
